<?xml version="1.0" encoding="UTF-8"?>
<svg width="32px" height="32px" viewBox="0 0 32 32" version="1.1" xmlns="http://www.w3.org/2000/svg" xmlns:xlink="http://www.w3.org/1999/xlink">
    <!-- Generator: Sketch 42 (36781) - http://www.bohemiancoding.com/sketch -->
    <title>Icon 32 square</title>
    <desc>Created with Sketch.</desc>
    <defs>
        <path d="M13.34,17.5052688 L13.34,17.5052688 L13.34,6.24324324 L15.66,6.24324324 L15.66,17.5052688 C17.9631247,15.2067387 19.14,11.6439477 19.14,6.24324324 L21.46,6.24324324 C21.46,11.445588 20.4013431,15.2691142 18.2977125,17.9845236 C22.2627587,16.3289003 24.94,12.0291976 24.94,6.24324324 L27.26,6.24324324 C27.26,14.9238303 21.8096385,21 14.5,21 L14.5,19.8648649 L14.5,21 C7.19036154,21 1.74,14.9238303 1.74,6.24324324 L4.06,6.24324324 C4.06,12.0291976 6.73724131,16.3289003 10.7022875,17.9845236 C8.59865692,15.2691142 7.54,11.445588 7.54,6.24324324 L9.86,6.24324324 C9.86,11.6439477 11.0368753,15.2067387 13.34,17.5052688 Z M2.9,-3.12542784e-14 L5.51,5.10810811 L0.29,5.10810811 L2.9,-3.12542784e-14 Z M8.7,-3.12542784e-14 L11.31,5.10810811 L6.09,5.10810811 L8.7,-3.12542784e-14 Z M14.5,-3.12542784e-14 L17.11,5.10810811 L11.89,5.10810811 L14.5,-3.12542784e-14 Z M20.3,-3.12542784e-14 L22.91,5.10810811 L17.69,5.10810811 L20.3,-3.12542784e-14 Z M26.1,-3.12542784e-14 L28.71,5.10810811 L23.49,5.10810811 L26.1,-3.12542784e-14 Z" id="path-1"></path>
    </defs>
    <g id="Page-2" stroke="none" stroke-width="1" fill="none" fill-rule="evenodd">
        <g id="Icon-32-square">
            <rect id="Rectangle" fill="#4671DF" x="0" y="0" width="32" height="32"></rect>
            <g id="icon/arrows" transform="translate(13.500000, 18.730000) rotate(-315.000000) translate(-13.500000, -18.730000) translate(-1.000000, 8.000000)">
                <g id="color/yellow">
                    <mask id="mask-2" fill="white">
                        <use xlink:href="#path-1"></use>
                    </mask>
                    <use id="Mask" fill="#000000" fill-rule="nonzero" xlink:href="#path-1"></use>
                    <g id="color/white" mask="url(#mask-2)" fill="#FFFFFF">
                        <rect id="Rectangle" x="0" y="0" width="29" height="21"></rect>
                    </g>
                </g>
            </g>
        </g>
    </g>
</svg>